<svg xmlns="http://www.w3.org/2000/svg" xmlns:svg="http://www.w3.org/2000/svg" id="svg8" width="800" height="420" version="1.1" viewBox="0 0 211.667 111.125"><defs id="defs2"><marker style="overflow:visible" id="marker10110" orient="auto" refX="0" refY="0"><path style="fill:#000;fill-opacity:1;fill-rule:evenodd;stroke:#000;stroke-width:1pt;stroke-opacity:1" id="path10108" d="M 0,0 5,-5 -12.5,0 5,5 Z" transform="matrix(0.4,0,0,0.4,4,0)"/></marker><marker style="overflow:visible" id="marker10100" orient="auto" refX="0" refY="0"><path style="fill:#000;fill-opacity:1;fill-rule:evenodd;stroke:#000;stroke-width:1pt;stroke-opacity:1" id="path10098" d="M 0,0 5,-5 -12.5,0 5,5 Z" transform="matrix(0.4,0,0,0.4,4,0)"/></marker><marker style="overflow:visible" id="marker9538" orient="auto" refX="0" refY="0"><path style="fill:#000;fill-opacity:1;fill-rule:evenodd;stroke:#000;stroke-width:1pt;stroke-opacity:1" id="path9536" d="M 0,0 5,-5 -12.5,0 5,5 Z" transform="matrix(0.4,0,0,0.4,4,0)"/></marker><marker style="overflow:visible" id="marker9528" orient="auto" refX="0" refY="0"><path style="fill:#000;fill-opacity:1;fill-rule:evenodd;stroke:#000;stroke-width:1pt;stroke-opacity:1" id="path9526" d="M 0,0 5,-5 -12.5,0 5,5 Z" transform="matrix(0.4,0,0,0.4,4,0)"/></marker><marker style="overflow:visible" id="marker8883" orient="auto" refX="0" refY="0"><path style="fill:#000;fill-opacity:1;fill-rule:evenodd;stroke:#000;stroke-width:1pt;stroke-opacity:1" id="path8881" d="M 0,0 5,-5 -12.5,0 5,5 Z" transform="matrix(0.4,0,0,0.4,4,0)"/></marker><marker style="overflow:visible" id="marker8055" orient="auto" refX="0" refY="0"><path style="fill:#000;fill-opacity:1;fill-rule:evenodd;stroke:#000;stroke-width:1pt;stroke-opacity:1" id="path8053" d="M 0,0 5,-5 -12.5,0 5,5 Z" transform="matrix(0.4,0,0,0.4,4,0)"/></marker><marker style="overflow:visible" id="marker7631" orient="auto" refX="0" refY="0"><path style="fill:#000;fill-opacity:1;fill-rule:evenodd;stroke:#000;stroke-width:1pt;stroke-opacity:1" id="path7629" d="M 0,0 5,-5 -12.5,0 5,5 Z" transform="matrix(0.4,0,0,0.4,4,0)"/></marker><marker style="overflow:visible" id="marker7185" orient="auto" refX="0" refY="0"><path style="fill:#000;fill-opacity:1;fill-rule:evenodd;stroke:#000;stroke-width:1pt;stroke-opacity:1" id="path7183" d="M 0,0 5,-5 -12.5,0 5,5 Z" transform="matrix(0.4,0,0,0.4,4,0)"/></marker><marker style="overflow:visible" id="marker5678" orient="auto" refX="0" refY="0"><path style="fill:#000;fill-opacity:1;fill-rule:evenodd;stroke:#000;stroke-width:1pt;stroke-opacity:1" id="path5676" d="M 0,0 5,-5 -12.5,0 5,5 Z" transform="matrix(0.4,0,0,0.4,4,0)"/></marker><marker style="overflow:visible" id="marker5668" orient="auto" refX="0" refY="0"><path style="fill:#000;fill-opacity:1;fill-rule:evenodd;stroke:#000;stroke-width:1pt;stroke-opacity:1" id="path5666" d="M 0,0 5,-5 -12.5,0 5,5 Z" transform="matrix(0.4,0,0,0.4,4,0)"/></marker><marker style="overflow:visible" id="marker3312" orient="auto" refX="0" refY="0"><path style="fill:#000;fill-opacity:1;fill-rule:evenodd;stroke:#000;stroke-width:1pt;stroke-opacity:1" id="path3310" d="M 0,0 5,-5 -12.5,0 5,5 Z" transform="matrix(0.4,0,0,0.4,4,0)"/></marker><marker style="overflow:visible" id="marker3302" orient="auto" refX="0" refY="0"><path style="fill:#000;fill-opacity:1;fill-rule:evenodd;stroke:#000;stroke-width:1pt;stroke-opacity:1" id="path3300" d="M 0,0 5,-5 -12.5,0 5,5 Z" transform="matrix(0.4,0,0,0.4,4,0)"/></marker><marker style="overflow:visible" id="marker2887" orient="auto" refX="0" refY="0"><path style="fill:#000;fill-opacity:1;fill-rule:evenodd;stroke:#000;stroke-width:1pt;stroke-opacity:1" id="path2885" d="M 0,0 5,-5 -12.5,0 5,5 Z" transform="matrix(0.4,0,0,0.4,4,0)"/></marker><marker style="overflow:visible" id="marker2877" orient="auto" refX="0" refY="0"><path style="fill:#000;fill-opacity:1;fill-rule:evenodd;stroke:#000;stroke-width:1pt;stroke-opacity:1" id="path2875" d="M 0,0 5,-5 -12.5,0 5,5 Z" transform="matrix(0.4,0,0,0.4,4,0)"/></marker><marker style="overflow:visible" id="marker1922" orient="auto" refX="0" refY="0"><path style="fill:#000;fill-opacity:1;fill-rule:evenodd;stroke:#000;stroke-width:1pt;stroke-opacity:1" id="path1920" d="M 0,0 5,-5 -12.5,0 5,5 Z" transform="matrix(0.4,0,0,0.4,4,0)"/></marker><marker style="overflow:visible" id="marker1912" orient="auto" refX="0" refY="0"><path style="fill:#000;fill-opacity:1;fill-rule:evenodd;stroke:#000;stroke-width:1pt;stroke-opacity:1" id="path1910" d="M 0,0 5,-5 -12.5,0 5,5 Z" transform="matrix(0.4,0,0,0.4,4,0)"/></marker><marker style="overflow:visible" id="marker1574" orient="auto" refX="0" refY="0"><path style="fill:#000;fill-opacity:1;fill-rule:evenodd;stroke:#000;stroke-width:1pt;stroke-opacity:1" id="path1572" d="M 0,0 5,-5 -12.5,0 5,5 Z" transform="matrix(0.4,0,0,0.4,4,0)"/></marker><marker style="overflow:visible" id="marker1564" orient="auto" refX="0" refY="0"><path style="fill:#000;fill-opacity:1;fill-rule:evenodd;stroke:#000;stroke-width:1pt;stroke-opacity:1" id="path1562" d="M 0,0 5,-5 -12.5,0 5,5 Z" transform="matrix(0.4,0,0,0.4,4,0)"/></marker><marker style="overflow:visible" id="marker1242" orient="auto" refX="0" refY="0"><path style="fill:#000;fill-opacity:1;fill-rule:evenodd;stroke:#000;stroke-width:1pt;stroke-opacity:1" id="path1240" d="M 0,0 5,-5 -12.5,0 5,5 Z" transform="matrix(0.4,0,0,0.4,4,0)"/></marker><marker style="overflow:visible" id="marker1232" orient="auto" refX="0" refY="0"><path style="fill:#000;fill-opacity:1;fill-rule:evenodd;stroke:#000;stroke-width:1pt;stroke-opacity:1" id="path1230" d="M 0,0 5,-5 -12.5,0 5,5 Z" transform="matrix(0.4,0,0,0.4,4,0)"/></marker><marker style="overflow:visible" id="marker6556" orient="auto" refX="0" refY="0"><path style="fill:#000;fill-opacity:1;fill-rule:evenodd;stroke:#000;stroke-width:1pt;stroke-opacity:1" id="path6554" d="M 0,0 5,-5 -12.5,0 5,5 Z" transform="matrix(0.4,0,0,0.4,4,0)"/></marker><marker style="overflow:visible" id="marker6546" orient="auto" refX="0" refY="0"><path style="fill:#000;fill-opacity:1;fill-rule:evenodd;stroke:#000;stroke-width:1pt;stroke-opacity:1" id="path6544" d="M 0,0 5,-5 -12.5,0 5,5 Z" transform="matrix(0.4,0,0,0.4,4,0)"/></marker><marker style="overflow:visible" id="marker5924" orient="auto" refX="0" refY="0"><path style="fill:#000;fill-opacity:1;fill-rule:evenodd;stroke:#000;stroke-width:1pt;stroke-opacity:1" id="path5922" d="M 0,0 5,-5 -12.5,0 5,5 Z" transform="matrix(0.4,0,0,0.4,4,0)"/></marker><marker style="overflow:visible" id="marker5914" orient="auto" refX="0" refY="0"><path style="fill:#000;fill-opacity:1;fill-rule:evenodd;stroke:#000;stroke-width:1pt;stroke-opacity:1" id="path5912" d="M 0,0 5,-5 -12.5,0 5,5 Z" transform="matrix(0.4,0,0,0.4,4,0)"/></marker><marker style="overflow:visible" id="marker5640" orient="auto" refX="0" refY="0"><path style="fill:#000;fill-opacity:1;fill-rule:evenodd;stroke:#000;stroke-width:1pt;stroke-opacity:1" id="path5638" d="M 0,0 5,-5 -12.5,0 5,5 Z" transform="matrix(0.4,0,0,0.4,4,0)"/></marker><marker style="overflow:visible" id="marker5630" orient="auto" refX="0" refY="0"><path style="fill:#000;fill-opacity:1;fill-rule:evenodd;stroke:#000;stroke-width:1pt;stroke-opacity:1" id="path5628" d="M 0,0 5,-5 -12.5,0 5,5 Z" transform="matrix(0.4,0,0,0.4,4,0)"/></marker><marker style="overflow:visible" id="marker5372" orient="auto" refX="0" refY="0"><path style="fill:#000;fill-opacity:1;fill-rule:evenodd;stroke:#000;stroke-width:1pt;stroke-opacity:1" id="path5370" d="M 0,0 5,-5 -12.5,0 5,5 Z" transform="matrix(0.4,0,0,0.4,4,0)"/></marker><marker style="overflow:visible" id="marker5362" orient="auto" refX="0" refY="0"><path style="fill:#000;fill-opacity:1;fill-rule:evenodd;stroke:#000;stroke-width:1pt;stroke-opacity:1" id="path5360" d="M 0,0 5,-5 -12.5,0 5,5 Z" transform="matrix(0.4,0,0,0.4,4,0)"/></marker><marker style="overflow:visible" id="marker4398" orient="auto" refX="0" refY="0"><path style="fill:#000;fill-opacity:1;fill-rule:evenodd;stroke:#000;stroke-width:1pt;stroke-opacity:1" id="path4396" d="M 0,0 5,-5 -12.5,0 5,5 Z" transform="matrix(0.4,0,0,0.4,4,0)"/></marker><marker style="overflow:visible" id="marker4388" orient="auto" refX="0" refY="0"><path style="fill:#000;fill-opacity:1;fill-rule:evenodd;stroke:#000;stroke-width:1pt;stroke-opacity:1" id="path4386" d="M 0,0 5,-5 -12.5,0 5,5 Z" transform="matrix(0.4,0,0,0.4,4,0)"/></marker><marker style="overflow:visible" id="marker3993" orient="auto" refX="0" refY="0"><path style="fill:#000;fill-opacity:1;fill-rule:evenodd;stroke:#000;stroke-width:1pt;stroke-opacity:1" id="path3991" d="M 0,0 5,-5 -12.5,0 5,5 Z" transform="matrix(0.4,0,0,0.4,4,0)"/></marker><marker style="overflow:visible" id="marker3905" orient="auto" refX="0" refY="0"><path style="fill:#000;fill-opacity:1;fill-rule:evenodd;stroke:#000;stroke-width:1pt;stroke-opacity:1" id="path3903" d="M 0,0 5,-5 -12.5,0 5,5 Z" transform="matrix(0.4,0,0,0.4,4,0)"/></marker><rect id="rect3629" width="1.491" height="7.95" x="171.692" y="49.099"/><rect id="rect2732" width="1.356" height="9.66" x="49.026" y="92.121"/><marker style="overflow:visible" id="marker5299" orient="auto" refX="0" refY="0"><path style="fill:#000;fill-opacity:1;fill-rule:evenodd;stroke:#000;stroke-width:1pt;stroke-opacity:1" id="path5297" d="M 0,0 5,-5 -12.5,0 5,5 Z" transform="matrix(0.4,0,0,0.4,4,0)"/></marker><marker style="overflow:visible" id="marker4236" orient="auto" refX="0" refY="0"><path style="fill:#000;fill-opacity:1;fill-rule:evenodd;stroke:#000;stroke-width:1pt;stroke-opacity:1" id="path4234" d="M 0,0 5,-5 -12.5,0 5,5 Z" transform="matrix(0.4,0,0,0.4,4,0)"/></marker><marker style="overflow:visible" id="marker3578" orient="auto" refX="0" refY="0"><path style="fill:#000;fill-opacity:1;fill-rule:evenodd;stroke:#000;stroke-width:1pt;stroke-opacity:1" id="path3576" d="M 0,0 5,-5 -12.5,0 5,5 Z" transform="matrix(0.4,0,0,0.4,4,0)"/></marker><marker style="overflow:visible" id="marker2673" orient="auto" refX="0" refY="0"><path style="fill:#000;fill-opacity:1;fill-rule:evenodd;stroke:#000;stroke-width:1pt;stroke-opacity:1" id="path2671" d="M 0,0 5,-5 -12.5,0 5,5 Z" transform="matrix(-0.4,0,0,-0.4,-4,0)"/></marker><marker style="overflow:visible" id="marker2663" orient="auto" refX="0" refY="0"><path style="fill:#000;fill-opacity:1;fill-rule:evenodd;stroke:#000;stroke-width:1pt;stroke-opacity:1" id="path2661" d="M 0,0 5,-5 -12.5,0 5,5 Z" transform="matrix(0.4,0,0,0.4,4,0)"/></marker><marker style="overflow:visible" id="marker2653" orient="auto" refX="0" refY="0"><path style="fill:#000;fill-opacity:1;fill-rule:evenodd;stroke:#000;stroke-width:1pt;stroke-opacity:1" id="path2651" d="M 0,0 5,-5 -12.5,0 5,5 Z" transform="matrix(0.4,0,0,0.4,4,0)"/></marker><marker style="overflow:visible" id="marker2362" orient="auto" refX="0" refY="0"><path style="fill:#000;fill-opacity:1;fill-rule:evenodd;stroke:#000;stroke-width:1pt;stroke-opacity:1" id="path2360" d="M 0,0 5,-5 -12.5,0 5,5 Z" transform="matrix(0.4,0,0,0.4,4,0)"/></marker><marker style="overflow:visible" id="marker2743" orient="auto" refX="0" refY="0"><path style="fill:#000;fill-opacity:1;fill-rule:evenodd;stroke:#000;stroke-width:1pt;stroke-opacity:1" id="path2741" d="M 0,0 5,-5 -12.5,0 5,5 Z" transform="matrix(0.4,0,0,0.4,4,0)"/></marker><marker style="overflow:visible" id="Arrow1Lend" orient="auto" refX="0" refY="0"><path style="fill:#000;fill-opacity:1;fill-rule:evenodd;stroke:#000;stroke-width:1pt;stroke-opacity:1" id="path880" d="M 0,0 5,-5 -12.5,0 5,5 Z" transform="matrix(-0.8,0,0,-0.8,-10,0)"/></marker><marker style="overflow:visible" id="marker2108" orient="auto" refX="0" refY="0"><path style="fill:#000;fill-opacity:1;fill-rule:evenodd;stroke:#000;stroke-width:1pt;stroke-opacity:1" id="path2106" d="M 0,0 5,-5 -12.5,0 5,5 Z" transform="matrix(-0.4,0,0,-0.4,-4,0)"/></marker><marker style="overflow:visible" id="Arrow1Mend" orient="auto" refX="0" refY="0"><path style="fill:#000;fill-opacity:1;fill-rule:evenodd;stroke:#000;stroke-width:1pt;stroke-opacity:1" id="path886" d="M 0,0 5,-5 -12.5,0 5,5 Z" transform="matrix(-0.4,0,0,-0.4,-4,0)"/></marker><marker style="overflow:visible" id="marker2743-1" orient="auto" refX="0" refY="0"><path style="fill:#000;fill-opacity:1;fill-rule:evenodd;stroke:#000;stroke-width:1pt;stroke-opacity:1" id="path2741-2" d="M 0,0 5,-5 -12.5,0 5,5 Z" transform="matrix(0.4,0,0,0.4,4,0)"/></marker><marker style="overflow:visible" id="marker2653-0" orient="auto" refX="0" refY="0"><path style="fill:#000;fill-opacity:1;fill-rule:evenodd;stroke:#000;stroke-width:1pt;stroke-opacity:1" id="path2651-6" d="M 0,0 5,-5 -12.5,0 5,5 Z" transform="matrix(0.4,0,0,0.4,4,0)"/></marker><marker style="overflow:visible" id="marker2673-8" orient="auto" refX="0" refY="0"><path style="fill:#000;fill-opacity:1;fill-rule:evenodd;stroke:#000;stroke-width:1pt;stroke-opacity:1" id="path2671-9" d="M 0,0 5,-5 -12.5,0 5,5 Z" transform="matrix(-0.4,0,0,-0.4,-4,0)"/></marker><marker style="overflow:visible" id="marker2362-7" orient="auto" refX="0" refY="0"><path style="fill:#000;fill-opacity:1;fill-rule:evenodd;stroke:#000;stroke-width:1pt;stroke-opacity:1" id="path2360-3" d="M 0,0 5,-5 -12.5,0 5,5 Z" transform="matrix(0.4,0,0,0.4,4,0)"/></marker><marker style="overflow:visible" id="marker2653-0-6" orient="auto" refX="0" refY="0"><path style="fill:#000;fill-opacity:1;fill-rule:evenodd;stroke:#000;stroke-width:1pt;stroke-opacity:1" id="path2651-6-5" d="M 0,0 5,-5 -12.5,0 5,5 Z" transform="matrix(0.4,0,0,0.4,4,0)"/></marker><marker style="overflow:visible" id="marker2673-8-6" orient="auto" refX="0" refY="0"><path style="fill:#000;fill-opacity:1;fill-rule:evenodd;stroke:#000;stroke-width:1pt;stroke-opacity:1" id="path2671-9-3" d="M 0,0 5,-5 -12.5,0 5,5 Z" transform="matrix(-0.4,0,0,-0.4,-4,0)"/></marker></defs><metadata id="metadata5"/><g id="layer4" style="display:inline"><rect style="display:inline;vector-effect:none;fill:#000;fill-opacity:.13395;fill-rule:evenodd;stroke:#000;stroke-width:.212;stroke-linecap:butt;stroke-linejoin:miter;stroke-miterlimit:4;stroke-dasharray:.848,.848;stroke-dashoffset:0;stroke-opacity:1" id="Frame_Margin" width="210.39" height="97.424" x=".665" y="7.446" rx="0" ry="0"/></g><g id="layer5" style="display:inline"><g id="g11106" transform="matrix(0.91054546,0,0,1.0000001,-28.742779,-64.480337)" style="stroke-width:1.04797"><circle id="path1994" cx="240.552" cy="102.365" r=".009" style="display:inline;fill:#000;stroke:#000;stroke-width:.277275"/><path style="display:inline;fill:none;fill-rule:evenodd;stroke:#000;stroke-width:.664545px;stroke-linecap:butt;stroke-linejoin:miter;stroke-opacity:1;marker-start:url(#marker3905)" id="path6672" d="M 263.89025,82.316225 159.37389,82.570434"/><path style="display:inline;fill:none;fill-rule:evenodd;stroke:#000;stroke-width:.664545px;stroke-linecap:butt;stroke-linejoin:miter;stroke-opacity:1;marker-start:url(#marker3993)" id="path6674" d="m 35.102672,82.316225 97.436358,0.254209"/><text style="font-size:5.82994px;line-height:125%;font-family:mdl2;-inkscape-font-specification:'mdl2, Normal';letter-spacing:0;word-spacing:0;writing-mode:lr-tb;display:inline;fill:none;stroke:#000;stroke-width:.277274px;stroke-linecap:butt;stroke-linejoin:miter;stroke-opacity:1" id="text6773" x="132.592" y="87.298" transform="scale(1.0460578,0.95597012)" xml:space="preserve"><tspan style="font-style:normal;font-variant:normal;font-weight:400;font-stretch:normal;font-size:4.37245px;font-family:Selawik;-inkscape-font-specification:'Selawik, Normal';font-variant-ligatures:normal;font-variant-caps:normal;font-variant-numeric:normal;font-variant-east-asian:normal;fill:#000;fill-opacity:1;stroke-width:.277274px" id="tspan6771" x="132.592" y="87.298">Margin</tspan></text><g id="g6753" transform="matrix(0.8965915,0,0,0.7017979,16.030809,79.228971)" style="display:inline;fill:#e5ff80;fill-opacity:1;stroke:none;stroke-width:1.32112;stroke-miterlimit:4;stroke-dasharray:none"><rect style="vector-effect:none;fill:#e5ff80;fill-opacity:1;fill-rule:evenodd;stroke:none;stroke-width:1.32112;stroke-linecap:butt;stroke-linejoin:miter;stroke-miterlimit:4;stroke-dasharray:none;stroke-dashoffset:0;stroke-opacity:1" id="rect6751" width="236.22" height="110.092" x="30.195" y="10.982" rx="0" ry="0"/></g><text style="font-size:6.03432px;line-height:125%;font-family:mdl2;-inkscape-font-specification:'mdl2, Normal';letter-spacing:0;word-spacing:0;writing-mode:lr-tb;display:inline;fill:none;stroke:#000;stroke-width:.277274px;stroke-linecap:butt;stroke-linejoin:miter;stroke-opacity:1" id="text6777" x="85.961" y="-255.837" transform="matrix(0,1.021258,-0.9791845,0,0,0)" xml:space="preserve"><tspan style="font-style:normal;font-variant:normal;font-weight:400;font-stretch:normal;font-size:4.52574px;font-family:Selawik;-inkscape-font-specification:'Selawik, Normal';font-variant-ligatures:normal;font-variant-caps:normal;font-variant-numeric:normal;font-variant-east-asian:normal;fill:#000;fill-opacity:1;stroke-width:.277274px" id="tspan6775" x="85.961" y="-255.837">Outline</tspan></text><rect style="display:inline;vector-effect:none;fill:#fc0;fill-opacity:1;fill-rule:evenodd;stroke:#730000;stroke-width:5.23986;stroke-linecap:butt;stroke-linejoin:miter;stroke-miterlimit:4;stroke-dasharray:none;stroke-dashoffset:0;stroke-opacity:1" id="rect2096" width="193.987" height="58.556" x="53.041" y="94.976" rx="0" ry="0"/><text style="font-style:normal;font-variant:normal;font-weight:400;font-stretch:normal;font-size:4.23333px;line-height:125%;font-family:mdl2;-inkscape-font-specification:'mdl2, Normal';font-variant-ligatures:normal;font-variant-caps:normal;font-variant-numeric:normal;font-variant-east-asian:normal;letter-spacing:0;word-spacing:0;writing-mode:lr-tb;display:inline;fill:#fff;fill-opacity:1;stroke:#000;stroke-width:0;stroke-linecap:butt;stroke-linejoin:miter;stroke-miterlimit:4;stroke-dasharray:none;stroke-dashoffset:0;stroke-opacity:1" id="text174" x="52.669" y="97.028" xml:space="preserve"><tspan id="tspan172" x="52.669" y="97.028" style="font-style:normal;font-variant:normal;font-weight:400;font-stretch:normal;font-size:4.23333px;font-family:mdl2;-inkscape-font-specification:'mdl2, Normal';font-variant-ligatures:normal;font-variant-caps:normal;font-variant-numeric:normal;font-variant-east-asian:normal;fill:#fff;fill-opacity:1;stroke-width:0;stroke-miterlimit:4;stroke-dasharray:none;stroke-dashoffset:0">Border</tspan></text><path style="display:inline;fill:none;fill-rule:evenodd;stroke:#000;stroke-width:.664546px;stroke-linecap:butt;stroke-linejoin:miter;stroke-opacity:1;marker-start:url(#marker5678)" id="path5662" d="m 81.37729,146.31454 56.13566,0.0628"/><text style="font-size:5.82994px;line-height:125%;font-family:mdl2;-inkscape-font-specification:'mdl2, Normal';letter-spacing:0;word-spacing:0;writing-mode:lr-tb;display:inline;fill:none;stroke:#000;stroke-width:.277274px;stroke-linecap:butt;stroke-linejoin:miter;stroke-opacity:1" id="text6769" x="137.611" y="154.636" transform="scale(1.0460578,0.95597012)" xml:space="preserve"><tspan style="font-style:normal;font-variant:normal;font-weight:400;font-stretch:normal;font-size:4.37245px;font-family:Selawik;-inkscape-font-specification:'Selawik, Normal';font-variant-ligatures:normal;font-variant-caps:normal;font-variant-numeric:normal;font-variant-east-asian:normal;fill:#000;fill-opacity:1;stroke-width:.277274px" id="tspan6767" x="137.611" y="154.636">Width</tspan></text><text style="font-size:5.82994px;line-height:125%;font-family:mdl2;-inkscape-font-specification:'mdl2, Normal';letter-spacing:0;word-spacing:0;writing-mode:lr-tb;display:inline;fill:none;stroke:#000;stroke-width:.277274px;stroke-linecap:butt;stroke-linejoin:miter;stroke-opacity:1" id="text7015" x="112.37" y="-77.149" transform="matrix(0,1.0460578,-0.95597012,0,0,0)" xml:space="preserve"><tspan style="font-style:normal;font-variant:normal;font-weight:400;font-stretch:normal;font-size:4.37245px;font-family:Selawik;-inkscape-font-specification:'Selawik, Normal';font-variant-ligatures:normal;font-variant-caps:normal;font-variant-numeric:normal;font-variant-east-asian:normal;fill:#000;fill-opacity:1;stroke-width:.277274px" id="tspan7013" x="112.37" y="-77.149">Height</tspan></text><path style="display:inline;fill:none;fill-rule:evenodd;stroke:#000;stroke-width:.209594;stroke-linecap:butt;stroke-linejoin:miter;stroke-miterlimit:4;stroke-dasharray:none;stroke-opacity:1" id="path7021" d="m 79.416883,107.54165 0.160193,41.79156"/><path style="display:inline;fill:none;fill-rule:evenodd;stroke:#000;stroke-width:.209594;stroke-linecap:butt;stroke-linejoin:miter;stroke-miterlimit:4;stroke-dasharray:none;stroke-opacity:1" id="path7023" d="m 219.61673,107.21904 0.10457,42.09541"/><path style="display:inline;fill:none;fill-rule:evenodd;stroke:#000;stroke-width:.209594;stroke-linecap:butt;stroke-linejoin:miter;stroke-miterlimit:4;stroke-dasharray:none;stroke-opacity:1" id="path7027" d="M 71.493972,141.46891 219.77043,141.0332"/><path style="display:inline;fill:none;fill-rule:evenodd;stroke:#000;stroke-width:.209594;stroke-linecap:butt;stroke-linejoin:miter;stroke-miterlimit:4;stroke-dasharray:none;stroke-opacity:1" id="path7031" d="m 71.899064,106.7815 147.842376,1.01277"/><g id="g9059" transform="translate(0,50.800026)" style="display:inline;stroke-width:1.04797"><text style="font-size:5.82994px;line-height:125%;font-family:mdl2;-inkscape-font-specification:'mdl2, Normal';letter-spacing:0;word-spacing:0;writing-mode:lr-tb;fill:none;stroke:#000;stroke-width:.277274px;stroke-linecap:butt;stroke-linejoin:miter;stroke-opacity:1" id="text5658" x="134.955" y="55.673" transform="scale(1.0460578,0.95597011)" xml:space="preserve"><tspan style="font-style:normal;font-variant:normal;font-weight:400;font-stretch:normal;font-size:4.37245px;font-family:Selawik;-inkscape-font-specification:'Selawik, Normal';font-variant-ligatures:normal;font-variant-caps:normal;font-variant-numeric:normal;font-variant-east-asian:normal;fill:#000;fill-opacity:1;stroke-width:.277274px" id="tspan5656" x="134.955" y="55.673">Padding</tspan></text><path style="display:inline;fill:none;fill-rule:evenodd;stroke:#000;stroke-width:.664547px;stroke-linecap:butt;stroke-linejoin:miter;stroke-opacity:1;marker-start:url(#marker5668)" id="path5660" d="m 241.55492,51.771755 -75.60726,0.254209"/><path style="display:inline;fill:none;fill-rule:evenodd;stroke:#000;stroke-width:.664547px;stroke-linecap:butt;stroke-linejoin:miter;stroke-opacity:1;marker-start:url(#marker7185)" id="path7181" d="m 57.658303,51.771755 75.607017,0.254209"/></g><path style="display:inline;fill:none;fill-rule:evenodd;stroke:#000;stroke-width:.664546px;stroke-linecap:butt;stroke-linejoin:miter;stroke-opacity:1;marker-start:url(#marker7631)" id="path7627" d="m 217.75583,146.31454 -56.13578,0.0628"/><path style="display:inline;fill:none;fill-rule:evenodd;stroke:#000;stroke-width:.664546px;stroke-linecap:butt;stroke-linejoin:miter;stroke-opacity:1;marker-start:url(#marker8055)" id="path8051" d="m 75.1781,109.11868 0.0628,7.64026"/><path style="display:inline;fill:none;fill-rule:evenodd;stroke:#000;stroke-width:.664546px;stroke-linecap:butt;stroke-linejoin:miter;stroke-opacity:1;marker-start:url(#marker8883)" id="path8483" d="m 75.250197,139.85374 -0.0628,-7.64026"/><path style="display:inline;fill:none;fill-rule:evenodd;stroke:#000;stroke-width:.209593;stroke-linecap:butt;stroke-linejoin:miter;stroke-miterlimit:4;stroke-dasharray:none;stroke-opacity:1" id="path9496" d="m 50.416596,92.681787 0.06702,71.673733"/><path style="display:inline;fill:none;fill-rule:evenodd;stroke:#000;stroke-width:.209593;stroke-linecap:butt;stroke-linejoin:miter;stroke-miterlimit:4;stroke-dasharray:none;stroke-opacity:1" id="path9498" d="M 249.7132,92.681798 249.695,164.34459"/><g id="g10062" transform="translate(0,52.916693)" style="display:inline;stroke-width:1.04797"><path style="display:inline;fill:none;fill-rule:evenodd;stroke:#000;stroke-width:.664547px;stroke-linecap:butt;stroke-linejoin:miter;stroke-opacity:1;marker-start:url(#marker9538)" id="path9518" d="m 52.390631,107.68513 80.072889,0.0628"/><text style="font-size:5.82994px;line-height:125%;font-family:mdl2;-inkscape-font-specification:'mdl2, Normal';letter-spacing:0;word-spacing:0;writing-mode:lr-tb;display:inline;fill:none;stroke:#000;stroke-width:.277274px;stroke-linecap:butt;stroke-linejoin:miter;stroke-opacity:1" id="text9522" x="132.293" y="113.771" transform="scale(1.0460578,0.95597011)" xml:space="preserve"><tspan style="font-style:normal;font-variant:normal;font-weight:400;font-stretch:normal;font-size:4.37245px;font-family:Selawik;-inkscape-font-specification:'Selawik, Normal';font-variant-ligatures:normal;font-variant-caps:normal;font-variant-numeric:normal;font-variant-east-asian:normal;fill:#000;fill-opacity:1;stroke-width:.277274px" id="tspan9520" x="132.293" y="113.771">Entity Width</tspan></text><path style="display:inline;fill:none;fill-rule:evenodd;stroke:#000;stroke-width:.664546px;stroke-linecap:butt;stroke-linejoin:miter;stroke-opacity:1;marker-start:url(#marker9528)" id="path9524" d="m 247.82243,107.68513 -77.17997,0.0628"/></g><path style="display:inline;fill:none;fill-rule:evenodd;stroke:#000;stroke-width:.209594;stroke-linecap:butt;stroke-linejoin:miter;stroke-miterlimit:4;stroke-dasharray:none;stroke-opacity:1" id="path10018" d="M 43.200695,92.713414 249.30995,92.277715"/><path style="display:inline;fill:none;fill-rule:evenodd;stroke:#000;stroke-width:.209594;stroke-linecap:butt;stroke-linejoin:miter;stroke-miterlimit:4;stroke-dasharray:none;stroke-opacity:1" id="path10020" d="M 43.283312,156.2913 249.70467,155.8556"/><g id="g1309"><g id="g1353"><path id="path10088" d="m 15.537109,102.88281 -0.113281,35.55664 z" transform="matrix(0.29057674,0,0,0.26458331,41.999285,67.210092)" style="display:inline;fill:none;fill-rule:evenodd;stroke:#000;stroke-width:2.3967px;stroke-linecap:butt;stroke-linejoin:miter;stroke-opacity:1;marker-start:url(#marker10100)"/><text style="font-style:normal;font-variant:normal;font-weight:400;font-stretch:normal;font-size:4.36247px;line-height:125%;font-family:mdl2;-inkscape-font-specification:'mdl2, Normal';font-variant-ligatures:normal;font-variant-caps:normal;font-variant-numeric:normal;font-variant-east-asian:normal;letter-spacing:0;word-spacing:0;writing-mode:lr-tb;display:inline;fill:maroon;fill-opacity:1;stroke:#000;stroke-width:.277274px;stroke-linecap:butt;stroke-linejoin:miter;stroke-opacity:1" id="text10092" x="104.198" y="-47.426" transform="matrix(0,1.0460578,-0.95597011,0,0,0)" xml:space="preserve"><tspan id="tspan1305" x="104.198" y="-47.426">Entity Height</tspan></text><path style="display:inline;fill:none;fill-rule:evenodd;stroke:#000;stroke-width:.664545px;stroke-linecap:butt;stroke-linejoin:miter;stroke-opacity:1;marker-start:url(#marker10110)" id="path10094" d="m 46.529211,154.37498 -0.04901,-8.38112 -0.01379,-2.35779"/></g></g><g id="Frame_Content" transform="matrix(1,0,0,1.3260636,34.197022,7.3804229)" style="stroke-width:0;stroke-miterlimit:4;stroke-dasharray:none"><title id="title4261">Frame_Content</title><rect style="vector-effect:none;fill:#000;fill-opacity:.313725;fill-rule:evenodd;stroke:#000;stroke-width:0;stroke-linecap:butt;stroke-linejoin:miter;stroke-miterlimit:4;stroke-dasharray:none;stroke-dashoffset:0;stroke-opacity:1" id="rect4847" width="140.287" height="25.797" x="45.133" y="75.13" rx="0" ry="0"/><text style="font-size:19.6812px;line-height:125%;font-family:mdl2;-inkscape-font-specification:'mdl2, Normal';letter-spacing:0;word-spacing:0;writing-mode:lr-tb;fill:#000;fill-opacity:1;stroke:#000;stroke-width:0;stroke-linecap:butt;stroke-linejoin:miter;stroke-miterlimit:4;stroke-dasharray:none;stroke-opacity:1" id="text4851" x="74.781" y="99.299" transform="scale(1.0381702,0.9632332)" xml:space="preserve"><tspan id="tspan4849" x="74.781" y="99.299" style="font-style:normal;font-variant:normal;font-weight:400;font-stretch:normal;font-size:22.5778px;font-family:Selawik;-inkscape-font-specification:'Selawik, Normal';font-variant-ligatures:normal;font-variant-caps:normal;font-variant-numeric:normal;font-variant-east-asian:normal;fill:#000;fill-opacity:1;stroke-width:0;stroke-miterlimit:4;stroke-dasharray:none">Content</tspan></text></g></g></g></svg>